<svg width="99" height="97" viewBox="0 0 99 97" fill="none" xmlns="http://www.w3.org/2000/svg">
<line y1="-2" x2="17.718" y2="-2" transform="matrix(0.839086 0.544 -0.593601 0.80476 43 44)" stroke="#1976D2" stroke-width="4"/>
<line y1="-2" x2="17.718" y2="-2" transform="matrix(0.839086 0.544 -0.593601 0.80476 38 50)" stroke="#20F50D" stroke-width="4"/>
<line y1="-2" x2="17.718" y2="-2" transform="matrix(0.839086 0.544 -0.593601 0.80476 47 38)" stroke="#20F50D" stroke-width="4"/>
<line y1="-2" x2="17.718" y2="-2" transform="matrix(0.839086 0.544 -0.593601 0.80476 64 16)" stroke="#F5C20D" stroke-width="4"/>
<line y1="-2" x2="17.718" y2="-2" transform="matrix(0.839086 0.544 -0.593601 0.80476 69 9)" stroke="#1976D2" stroke-width="4"/>
<line y1="-2" x2="17.718" y2="-2" transform="matrix(0.839086 0.544 -0.593601 0.80476 14 81)" stroke="#1976D2" stroke-width="4"/>
<line y1="-2" x2="17.718" y2="-2" transform="matrix(0.839086 0.544 -0.593601 0.80476 19 74)" stroke="#F5C20D" stroke-width="4"/>
<path d="M65.3294 2.93707V2.93707C58.4448 9.56611 56.8169 19.5632 61.2975 27.6977L64.9636 34.3535C67.1406 38.306 67.9897 42.8022 67.3993 47.2518L67.3301 47.7732C66.4128 54.6865 61.9597 60.7802 55.4145 64.0791V64.0791C51.2709 66.1675 46.5568 66.9965 41.927 66.4511L35.4433 65.6872C25.7246 64.5421 15.8388 66.5691 7.42749 71.4315L6.14803 72.1711" stroke="#1976D2" stroke-width="4"/>
<path d="M33.5511 93.1354V93.1354C40.54 86.6165 42.3264 76.6465 37.9755 68.4419L34.4156 61.7287C32.3015 57.7421 31.5239 53.2331 32.1849 48.7934L32.2624 48.2731C33.2893 41.3753 37.8385 35.353 44.4353 32.1585V32.1585C48.6116 30.1361 53.3382 29.382 57.9588 30.0009L64.4295 30.8676C74.1288 32.1668 84.0455 30.2971 92.533 25.5688L93.824 24.8496" stroke="#1976D2" stroke-width="4"/>
</svg>
